<svg xmlns="http://www.w3.org/2000/svg" xmlns:xlink="http://www.w3.org/1999/xlink" width="199" height="131" viewBox="0 0 199 131">
  <defs>
    <clipPath id="clip-path">
      <rect width="199" height="131" fill="none"/>
    </clipPath>
  </defs>
  <g id="Repeat_Grid_1" data-name="Repeat Grid 1" clip-path="url(#clip-path)">
    <g transform="translate(92 54)">
      <circle id="Ellipse_1" data-name="Ellipse 1" cx="5" cy="5" r="5" transform="translate(-92 -54)" fill="rgba(56,204,245,0.5)"/>
      <circle id="Ellipse_2" data-name="Ellipse 2" cx="5" cy="5" r="5" transform="translate(-62 -54)" fill="rgba(56,204,245,0.5)"/>
    </g>
    <g transform="translate(152 54)">
      <circle id="Ellipse_1-2" data-name="Ellipse 1" cx="5" cy="5" r="5" transform="translate(-92 -54)" fill="rgba(56,204,245,0.5)"/>
      <circle id="Ellipse_2-2" data-name="Ellipse 2" cx="5" cy="5" r="5" transform="translate(-62 -54)" fill="rgba(56,204,245,0.5)"/>
    </g>
    <g transform="translate(212 54)">
      <circle id="Ellipse_1-3" data-name="Ellipse 1" cx="5" cy="5" r="5" transform="translate(-92 -54)" fill="rgba(56,204,245,0.5)"/>
      <circle id="Ellipse_2-3" data-name="Ellipse 2" cx="5" cy="5" r="5" transform="translate(-62 -54)" fill="rgba(56,204,245,0.5)"/>
    </g>
    <g transform="translate(272 54)">
      <circle id="Ellipse_1-4" data-name="Ellipse 1" cx="5" cy="5" r="5" transform="translate(-92 -54)" fill="rgba(56,204,245,0.5)"/>
      <circle id="Ellipse_2-4" data-name="Ellipse 2" cx="5" cy="5" r="5" transform="translate(-62 -54)" fill="rgba(56,204,245,0.5)"/>
    </g>
    <g transform="translate(92 84)">
      <circle id="Ellipse_1-5" data-name="Ellipse 1" cx="5" cy="5" r="5" transform="translate(-92 -54)" fill="rgba(56,204,245,0.5)"/>
      <circle id="Ellipse_2-5" data-name="Ellipse 2" cx="5" cy="5" r="5" transform="translate(-62 -54)" fill="rgba(56,204,245,0.5)"/>
    </g>
    <g transform="translate(152 84)">
      <circle id="Ellipse_1-6" data-name="Ellipse 1" cx="5" cy="5" r="5" transform="translate(-92 -54)" fill="rgba(56,204,245,0.5)"/>
      <circle id="Ellipse_2-6" data-name="Ellipse 2" cx="5" cy="5" r="5" transform="translate(-62 -54)" fill="rgba(56,204,245,0.5)"/>
    </g>
    <g transform="translate(212 84)">
      <circle id="Ellipse_1-7" data-name="Ellipse 1" cx="5" cy="5" r="5" transform="translate(-92 -54)" fill="rgba(56,204,245,0.5)"/>
      <circle id="Ellipse_2-7" data-name="Ellipse 2" cx="5" cy="5" r="5" transform="translate(-62 -54)" fill="rgba(56,204,245,0.5)"/>
    </g>
    <g transform="translate(272 84)">
      <circle id="Ellipse_1-8" data-name="Ellipse 1" cx="5" cy="5" r="5" transform="translate(-92 -54)" fill="rgba(56,204,245,0.5)"/>
      <circle id="Ellipse_2-8" data-name="Ellipse 2" cx="5" cy="5" r="5" transform="translate(-62 -54)" fill="rgba(56,204,245,0.5)"/>
    </g>
    <g transform="translate(92 114)">
      <circle id="Ellipse_1-9" data-name="Ellipse 1" cx="5" cy="5" r="5" transform="translate(-92 -54)" fill="rgba(56,204,245,0.5)"/>
      <circle id="Ellipse_2-9" data-name="Ellipse 2" cx="5" cy="5" r="5" transform="translate(-62 -54)" fill="rgba(56,204,245,0.5)"/>
    </g>
    <g transform="translate(152 114)">
      <circle id="Ellipse_1-10" data-name="Ellipse 1" cx="5" cy="5" r="5" transform="translate(-92 -54)" fill="rgba(56,204,245,0.5)"/>
      <circle id="Ellipse_2-10" data-name="Ellipse 2" cx="5" cy="5" r="5" transform="translate(-62 -54)" fill="rgba(56,204,245,0.5)"/>
    </g>
    <g transform="translate(212 114)">
      <circle id="Ellipse_1-11" data-name="Ellipse 1" cx="5" cy="5" r="5" transform="translate(-92 -54)" fill="rgba(56,204,245,0.5)"/>
      <circle id="Ellipse_2-11" data-name="Ellipse 2" cx="5" cy="5" r="5" transform="translate(-62 -54)" fill="rgba(56,204,245,0.5)"/>
    </g>
    <g transform="translate(272 114)">
      <circle id="Ellipse_1-12" data-name="Ellipse 1" cx="5" cy="5" r="5" transform="translate(-92 -54)" fill="rgba(56,204,245,0.5)"/>
      <circle id="Ellipse_2-12" data-name="Ellipse 2" cx="5" cy="5" r="5" transform="translate(-62 -54)" fill="rgba(56,204,245,0.5)"/>
    </g>
    <g transform="translate(92 144)">
      <circle id="Ellipse_1-13" data-name="Ellipse 1" cx="5" cy="5" r="5" transform="translate(-92 -54)" fill="rgba(56,204,245,0.5)"/>
      <circle id="Ellipse_2-13" data-name="Ellipse 2" cx="5" cy="5" r="5" transform="translate(-62 -54)" fill="rgba(56,204,245,0.5)"/>
    </g>
    <g transform="translate(152 144)">
      <circle id="Ellipse_1-14" data-name="Ellipse 1" cx="5" cy="5" r="5" transform="translate(-92 -54)" fill="rgba(56,204,245,0.5)"/>
      <circle id="Ellipse_2-14" data-name="Ellipse 2" cx="5" cy="5" r="5" transform="translate(-62 -54)" fill="rgba(56,204,245,0.5)"/>
    </g>
    <g transform="translate(212 144)">
      <circle id="Ellipse_1-15" data-name="Ellipse 1" cx="5" cy="5" r="5" transform="translate(-92 -54)" fill="rgba(56,204,245,0.5)"/>
      <circle id="Ellipse_2-15" data-name="Ellipse 2" cx="5" cy="5" r="5" transform="translate(-62 -54)" fill="rgba(56,204,245,0.5)"/>
    </g>
    <g transform="translate(272 144)">
      <circle id="Ellipse_1-16" data-name="Ellipse 1" cx="5" cy="5" r="5" transform="translate(-92 -54)" fill="rgba(56,204,245,0.5)"/>
      <circle id="Ellipse_2-16" data-name="Ellipse 2" cx="5" cy="5" r="5" transform="translate(-62 -54)" fill="rgba(56,204,245,0.5)"/>
    </g>
    <g transform="translate(92 174)">
      <circle id="Ellipse_1-17" data-name="Ellipse 1" cx="5" cy="5" r="5" transform="translate(-92 -54)" fill="rgba(56,204,245,0.5)"/>
      <circle id="Ellipse_2-17" data-name="Ellipse 2" cx="5" cy="5" r="5" transform="translate(-62 -54)" fill="rgba(56,204,245,0.5)"/>
    </g>
    <g transform="translate(152 174)">
      <circle id="Ellipse_1-18" data-name="Ellipse 1" cx="5" cy="5" r="5" transform="translate(-92 -54)" fill="rgba(56,204,245,0.5)"/>
      <circle id="Ellipse_2-18" data-name="Ellipse 2" cx="5" cy="5" r="5" transform="translate(-62 -54)" fill="rgba(56,204,245,0.5)"/>
    </g>
    <g transform="translate(212 174)">
      <circle id="Ellipse_1-19" data-name="Ellipse 1" cx="5" cy="5" r="5" transform="translate(-92 -54)" fill="rgba(56,204,245,0.5)"/>
      <circle id="Ellipse_2-19" data-name="Ellipse 2" cx="5" cy="5" r="5" transform="translate(-62 -54)" fill="rgba(56,204,245,0.5)"/>
    </g>
    <g transform="translate(272 174)">
      <circle id="Ellipse_1-20" data-name="Ellipse 1" cx="5" cy="5" r="5" transform="translate(-92 -54)" fill="rgba(56,204,245,0.5)"/>
      <circle id="Ellipse_2-20" data-name="Ellipse 2" cx="5" cy="5" r="5" transform="translate(-62 -54)" fill="rgba(56,204,245,0.5)"/>
    </g>
  </g>
</svg>
